<mxfile host="app.diagrams.net" linkTarget="_blank" scale="1" border="0" agent="Mozilla/5.0 (Windows NT 10.0; Win64; x64) AppleWebKit/537.36 (KHTML, like Gecko) Chrome/137.0.0.0 Safari/537.36" version="27.1.6">
  <diagram name="第 1 页" id="5SksGnyM_4eNdgJWKnyw">
    <mxGraphModel dx="3080" dy="1912" grid="1" gridSize="10" guides="1" tooltips="1" connect="1" arrows="1" fold="1" page="1" pageScale="1" pageWidth="827" pageHeight="1169" background="#ffffff" math="0" shadow="1" adaptiveColors="simple">
      <root>
        <mxCell id="0" />
        <mxCell id="1" parent="0" />
        <mxCell id="7-KTfRkRfkxP73cXao3J-4" value="" style="edgeStyle=orthogonalEdgeStyle;rounded=0;orthogonalLoop=1;jettySize=auto;html=1;" parent="1" source="f00TufxjCIewXmQMFSch-1" target="7-KTfRkRfkxP73cXao3J-3" edge="1">
          <mxGeometry relative="1" as="geometry" />
        </mxCell>
        <mxCell id="f00TufxjCIewXmQMFSch-1" value="PowerBI Link" style="rounded=0;whiteSpace=wrap;html=1;fontSize=13;" parent="1" vertex="1">
          <mxGeometry x="-270" y="50" width="120" height="60" as="geometry" />
        </mxCell>
        <mxCell id="f00TufxjCIewXmQMFSch-5" value="" style="edgeStyle=orthogonalEdgeStyle;rounded=0;orthogonalLoop=1;jettySize=auto;html=1;fontSize=13;" parent="1" source="f00TufxjCIewXmQMFSch-2" target="f00TufxjCIewXmQMFSch-4" edge="1">
          <mxGeometry relative="1" as="geometry" />
        </mxCell>
        <mxCell id="f00TufxjCIewXmQMFSch-2" value="Call API&lt;br&gt;&lt;font style=&quot;color: rgb(255, 51, 51);&quot;&gt;(update_overall_status/{project_id})&lt;/font&gt;&lt;div style=&quot;text-align: left;&quot;&gt;- project info&lt;/div&gt;&lt;div style=&quot;text-align: left;&quot;&gt;- all request forms&lt;/div&gt;&lt;div style=&quot;text-align: left;&quot;&gt;-&lt;span style=&quot;background-color: transparent;&quot;&gt;Project info 燈號 (前端反紅 缺失欄位?)&lt;/span&gt;&lt;/div&gt;&lt;div style=&quot;text-align: left;&quot;&gt;-Simulation request Form&amp;nbsp;&lt;span style=&quot;background-color: transparent; color: light-dark(rgb(0, 0, 0), rgb(255, 255, 255));&quot;&gt;燈號&amp;nbsp;&lt;/span&gt;&lt;/div&gt;&lt;div style=&quot;text-align: left;&quot;&gt;-Accept Request&amp;nbsp;&lt;span style=&quot;background-color: transparent; color: light-dark(rgb(0, 0, 0), rgb(255, 255, 255));&quot;&gt;燈號&lt;/span&gt;&lt;/div&gt;&lt;div style=&quot;text-align: left;&quot;&gt;-Simulation Finished&amp;nbsp;&lt;span style=&quot;background-color: transparent; color: light-dark(rgb(0, 0, 0), rgb(255, 255, 255));&quot;&gt;燈號&lt;/span&gt;&lt;/div&gt;&lt;div style=&quot;text-align: left;&quot;&gt;&lt;span style=&quot;background-color: transparent;&quot;&gt;&lt;font style=&quot;color: rgb(255, 51, 51);&quot;&gt;(燈號存 DB)&lt;/font&gt;&lt;/span&gt;&lt;/div&gt;&lt;div style=&quot;text-align: left;&quot;&gt;&lt;span style=&quot;background-color: transparent;&quot;&gt;&lt;font style=&quot;color: rgb(255, 51, 51);&quot;&gt;-&lt;/font&gt;&lt;/span&gt;&lt;span style=&quot;background-color: transparent; text-align: center;&quot;&gt;&lt;font color=&quot;#ff3333&quot;&gt;Light_overall&lt;/font&gt;&lt;/span&gt;&lt;/div&gt;&lt;div style=&quot;text-align: left;&quot;&gt;&lt;span style=&quot;background-color: transparent;&quot;&gt;&lt;font style=&quot;color: rgb(255, 51, 51);&quot;&gt;-C&lt;/font&gt;&lt;/span&gt;&lt;span style=&quot;background-color: transparent; text-align: center;&quot;&gt;&lt;font color=&quot;#ff3333&quot;&gt;urrent_stage&lt;/font&gt;&lt;/span&gt;&lt;/div&gt;&lt;div style=&quot;text-align: left;&quot;&gt;&lt;span style=&quot;background-color: transparent; text-align: center;&quot;&gt;&lt;font color=&quot;#ff3333&quot;&gt;-&lt;/font&gt;&lt;/span&gt;&lt;span style=&quot;background-color: transparent; text-align: center;&quot;&gt;&lt;font color=&quot;#ff3333&quot;&gt;Status&lt;/font&gt;&lt;/span&gt;&lt;/div&gt;" style="rounded=0;whiteSpace=wrap;html=1;fontSize=13;" parent="1" vertex="1">
          <mxGeometry x="-70" y="120" width="240" height="220" as="geometry" />
        </mxCell>
        <mxCell id="f00TufxjCIewXmQMFSch-12" value="" style="edgeStyle=orthogonalEdgeStyle;rounded=0;orthogonalLoop=1;jettySize=auto;html=1;fontSize=13;" parent="1" source="f00TufxjCIewXmQMFSch-4" target="f00TufxjCIewXmQMFSch-11" edge="1">
          <mxGeometry relative="1" as="geometry" />
        </mxCell>
        <mxCell id="f00TufxjCIewXmQMFSch-13" value="N" style="edgeLabel;html=1;align=center;verticalAlign=middle;resizable=0;points=[];fontSize=13;" parent="f00TufxjCIewXmQMFSch-12" vertex="1" connectable="0">
          <mxGeometry x="0.2" relative="1" as="geometry">
            <mxPoint as="offset" />
          </mxGeometry>
        </mxCell>
        <mxCell id="f00TufxjCIewXmQMFSch-19" value="" style="edgeStyle=orthogonalEdgeStyle;rounded=0;orthogonalLoop=1;jettySize=auto;html=1;fontSize=13;" parent="1" source="f00TufxjCIewXmQMFSch-4" target="f00TufxjCIewXmQMFSch-18" edge="1">
          <mxGeometry relative="1" as="geometry" />
        </mxCell>
        <mxCell id="f00TufxjCIewXmQMFSch-25" value="Y" style="edgeLabel;html=1;align=center;verticalAlign=middle;resizable=0;points=[];fontSize=13;" parent="f00TufxjCIewXmQMFSch-19" vertex="1" connectable="0">
          <mxGeometry x="0.0698" y="1" relative="1" as="geometry">
            <mxPoint as="offset" />
          </mxGeometry>
        </mxCell>
        <mxCell id="f00TufxjCIewXmQMFSch-4" value="前端判斷是否都為 Green" style="rhombus;whiteSpace=wrap;html=1;fontSize=13;" parent="1" vertex="1">
          <mxGeometry x="222" y="190" width="80" height="80" as="geometry" />
        </mxCell>
        <mxCell id="-w45ZgfKi6tFhenxyuMu-13" style="edgeStyle=orthogonalEdgeStyle;rounded=0;orthogonalLoop=1;jettySize=auto;html=1;entryX=0.5;entryY=0;entryDx=0;entryDy=0;" parent="1" source="f00TufxjCIewXmQMFSch-8" target="f00TufxjCIewXmQMFSch-14" edge="1">
          <mxGeometry relative="1" as="geometry" />
        </mxCell>
        <mxCell id="f00TufxjCIewXmQMFSch-8" value="填寫 request form&lt;div&gt;Call API:&lt;/div&gt;&lt;div&gt;&lt;span style=&quot;color: rgb(255, 51, 51);&quot;&gt;1.upload_solution_list&lt;/span&gt;&lt;/div&gt;&lt;div&gt;&lt;font style=&quot;color: rgb(255, 51, 51);&quot;&gt;2.apply_request_form&lt;/font&gt;&lt;/div&gt;&lt;div&gt;&lt;ol&gt;&lt;li style=&quot;text-align: left;&quot;&gt;str: 3D drawing(link/password)&lt;/li&gt;&lt;li style=&quot;text-align: left;&quot;&gt;&lt;font style=&quot;color: rgb(34, 255, 85);&quot;&gt;str: solution list (存在 112)&lt;/font&gt;&lt;/li&gt;&lt;li style=&quot;text-align: left;&quot;&gt;upload simulation condiction(&#39;design_verify&#39;,&#39;me_verify)&lt;/li&gt;&lt;li style=&quot;text-align: left;&quot;&gt;upload antenna data&lt;/li&gt;&lt;li style=&quot;text-align: left;&quot;&gt;save antenna date to DB&lt;/li&gt;&lt;li style=&quot;text-align: left;&quot;&gt;add form_id/ 有 form_id 則update&lt;/li&gt;&lt;li style=&quot;text-align: left;&quot;&gt;&lt;span style=&quot;background-color: transparent; color: light-dark(rgb(0, 0, 0), rgb(255, 255, 255)); text-align: center;&quot;&gt;request_status: Apply/Cancel/Accept/Reject/Finish&lt;/span&gt;&lt;/li&gt;&lt;li style=&quot;text-align: left;&quot;&gt;&lt;span style=&quot;background-color: transparent; color: light-dark(rgb(0, 0, 0), rgb(255, 255, 255)); text-align: center;&quot;&gt;create_time(time_step)&amp;nbsp;&lt;/span&gt;(sort by this)&lt;/li&gt;&lt;/ol&gt;&lt;/div&gt;" style="whiteSpace=wrap;html=1;fontSize=13;" parent="1" vertex="1">
          <mxGeometry x="675" y="65" width="270" height="326.5" as="geometry" />
        </mxCell>
        <mxCell id="f00TufxjCIewXmQMFSch-11" value="Block &quot;Apply&quot;" style="ellipse;whiteSpace=wrap;html=1;fontSize=13;" parent="1" vertex="1">
          <mxGeometry x="222" y="80" width="80" height="80" as="geometry" />
        </mxCell>
        <mxCell id="f00TufxjCIewXmQMFSch-17" value="" style="edgeStyle=orthogonalEdgeStyle;rounded=0;orthogonalLoop=1;jettySize=auto;html=1;fontSize=13;" parent="1" source="f00TufxjCIewXmQMFSch-14" target="f00TufxjCIewXmQMFSch-16" edge="1">
          <mxGeometry relative="1" as="geometry" />
        </mxCell>
        <mxCell id="f00TufxjCIewXmQMFSch-34" value="Accept" style="edgeLabel;html=1;align=center;verticalAlign=middle;resizable=0;points=[];fontSize=13;" parent="f00TufxjCIewXmQMFSch-17" vertex="1" connectable="0">
          <mxGeometry x="-0.0222" y="-2" relative="1" as="geometry">
            <mxPoint as="offset" />
          </mxGeometry>
        </mxCell>
        <mxCell id="f00TufxjCIewXmQMFSch-36" value="" style="edgeStyle=orthogonalEdgeStyle;rounded=0;orthogonalLoop=1;jettySize=auto;html=1;fontSize=13;" parent="1" source="f00TufxjCIewXmQMFSch-14" target="f00TufxjCIewXmQMFSch-35" edge="1">
          <mxGeometry relative="1" as="geometry" />
        </mxCell>
        <mxCell id="f00TufxjCIewXmQMFSch-37" value="reject" style="edgeLabel;html=1;align=center;verticalAlign=middle;resizable=0;points=[];fontSize=13;" parent="f00TufxjCIewXmQMFSch-36" vertex="1" connectable="0">
          <mxGeometry x="-0.175" relative="1" as="geometry">
            <mxPoint as="offset" />
          </mxGeometry>
        </mxCell>
        <mxCell id="f00TufxjCIewXmQMFSch-14" value="&lt;span style=&quot;background-color: transparent;&quot;&gt;Reject/ Approved/&lt;/span&gt;&lt;div&gt;&lt;span style=&quot;background-color: transparent;&quot;&gt;Cancel&lt;/span&gt;&lt;/div&gt;" style="rhombus;whiteSpace=wrap;html=1;fontSize=13;" parent="1" vertex="1">
          <mxGeometry x="770" y="445" width="80" height="80" as="geometry" />
        </mxCell>
        <mxCell id="-w45ZgfKi6tFhenxyuMu-5" value="" style="edgeStyle=orthogonalEdgeStyle;rounded=0;orthogonalLoop=1;jettySize=auto;html=1;fontSize=13;entryX=1;entryY=0.5;entryDx=0;entryDy=0;" parent="1" target="-w45ZgfKi6tFhenxyuMu-4" edge="1">
          <mxGeometry relative="1" as="geometry">
            <mxPoint x="769" y="723" as="sourcePoint" />
            <mxPoint x="545" y="723" as="targetPoint" />
          </mxGeometry>
        </mxCell>
        <mxCell id="f00TufxjCIewXmQMFSch-16" value="&lt;div&gt;&lt;span style=&quot;background-color: transparent; color: light-dark(rgb(0, 0, 0), rgb(255, 255, 255));&quot;&gt;Call API&lt;/span&gt;&lt;/div&gt;&lt;div&gt;&lt;div&gt;&lt;font style=&quot;color: rgb(255, 51, 51);&quot;&gt;1.accept&amp;nbsp;&lt;/font&gt;&lt;/div&gt;&lt;div&gt;&lt;font style=&quot;color: rgb(255, 51, 51);&quot;&gt;2.update_overall_status&lt;/font&gt;&lt;/div&gt;&lt;div&gt;add &quot;accept date&quot;&lt;/div&gt;&lt;div&gt;add &quot;due_date&quot;&lt;/div&gt;&lt;/div&gt;" style="whiteSpace=wrap;html=1;fontSize=13;" parent="1" vertex="1">
          <mxGeometry x="710" y="667" width="200" height="110" as="geometry" />
        </mxCell>
        <mxCell id="f00TufxjCIewXmQMFSch-20" value="" style="edgeStyle=orthogonalEdgeStyle;rounded=0;orthogonalLoop=1;jettySize=auto;html=1;fontSize=13;" parent="1" source="f00TufxjCIewXmQMFSch-18" target="f00TufxjCIewXmQMFSch-8" edge="1">
          <mxGeometry relative="1" as="geometry" />
        </mxCell>
        <mxCell id="f00TufxjCIewXmQMFSch-26" value="N" style="edgeLabel;html=1;align=center;verticalAlign=middle;resizable=0;points=[];fontSize=13;" parent="f00TufxjCIewXmQMFSch-20" vertex="1" connectable="0">
          <mxGeometry x="-0.0476" y="1" relative="1" as="geometry">
            <mxPoint as="offset" />
          </mxGeometry>
        </mxCell>
        <mxCell id="-w45ZgfKi6tFhenxyuMu-11" value="" style="edgeStyle=orthogonalEdgeStyle;rounded=0;orthogonalLoop=1;jettySize=auto;html=1;" parent="1" source="f00TufxjCIewXmQMFSch-18" target="-w45ZgfKi6tFhenxyuMu-10" edge="1">
          <mxGeometry relative="1" as="geometry" />
        </mxCell>
        <mxCell id="-w45ZgfKi6tFhenxyuMu-12" value="Y" style="edgeLabel;html=1;align=center;verticalAlign=middle;resizable=0;points=[];" parent="-w45ZgfKi6tFhenxyuMu-11" vertex="1" connectable="0">
          <mxGeometry x="-0.025" y="1" relative="1" as="geometry">
            <mxPoint as="offset" />
          </mxGeometry>
        </mxCell>
        <mxCell id="f00TufxjCIewXmQMFSch-18" value="前端判斷是否有舊的requet 尚未認領" style="rhombus;whiteSpace=wrap;html=1;fontSize=13;" parent="1" vertex="1">
          <mxGeometry x="397" y="189" width="80" height="80" as="geometry" />
        </mxCell>
        <mxCell id="f00TufxjCIewXmQMFSch-35" value="&lt;div&gt;&lt;div&gt;&lt;span style=&quot;background-color: transparent; color: light-dark(rgb(0, 0, 0), rgb(255, 255, 255));&quot;&gt;Call API&lt;/span&gt;&lt;/div&gt;&lt;div&gt;&lt;div&gt;&lt;font style=&quot;color: rgb(255, 51, 51);&quot;&gt;1.reject&amp;nbsp;&lt;/font&gt;&lt;/div&gt;&lt;div&gt;&lt;font style=&quot;color: rgb(255, 51, 51);&quot;&gt;2.update_overall_status&lt;/font&gt;&lt;/div&gt;&lt;/div&gt;&lt;/div&gt;呈現 reject 結果" style="ellipse;whiteSpace=wrap;html=1;fontSize=13;" parent="1" vertex="1">
          <mxGeometry x="984" y="445" width="196" height="175" as="geometry" />
        </mxCell>
        <mxCell id="NQx30ZV_6yhh8ZIkelvx-19" style="edgeStyle=orthogonalEdgeStyle;rounded=0;orthogonalLoop=1;jettySize=auto;html=1;entryX=1;entryY=0.5;entryDx=0;entryDy=0;" parent="1" source="-w45ZgfKi6tFhenxyuMu-4" target="-w45ZgfKi6tFhenxyuMu-6" edge="1">
          <mxGeometry relative="1" as="geometry" />
        </mxCell>
        <mxCell id="-w45ZgfKi6tFhenxyuMu-4" value="waiting&lt;div&gt;result&amp;nbsp;&lt;/div&gt;" style="rhombus;whiteSpace=wrap;html=1;fontSize=13;" parent="1" vertex="1">
          <mxGeometry x="500" y="683" width="80" height="80" as="geometry" />
        </mxCell>
        <mxCell id="CphlBpZOKbrCG6OZHmC4-6" value="" style="edgeStyle=orthogonalEdgeStyle;rounded=0;orthogonalLoop=1;jettySize=auto;html=1;" parent="1" source="-w45ZgfKi6tFhenxyuMu-6" target="CphlBpZOKbrCG6OZHmC4-5" edge="1">
          <mxGeometry relative="1" as="geometry" />
        </mxCell>
        <mxCell id="-w45ZgfKi6tFhenxyuMu-6" value="Call API&lt;div&gt;&lt;div&gt;&lt;span style=&quot;color: rgb(255, 51, 51); background-color: transparent;&quot;&gt;1.upload_plot_result&lt;/span&gt;&lt;/div&gt;&lt;div&gt;&lt;span style=&quot;color: rgb(255, 51, 51); background-color: transparent;&quot;&gt;2.&lt;/span&gt;&lt;span style=&quot;background-color: transparent;&quot;&gt;&lt;font color=&quot;#ff3333&quot;&gt;upload_pdf_result&lt;/font&gt;&lt;/span&gt;&lt;/div&gt;&lt;div&gt;&lt;span style=&quot;background-color: transparent;&quot;&gt;&lt;font color=&quot;#ff3333&quot;&gt;two types: solution_list/ result&lt;/font&gt;&lt;/span&gt;&lt;/div&gt;&lt;div&gt;&lt;font style=&quot;color: rgb(255, 0, 0);&quot;&gt;3.finished_request&lt;/font&gt;&lt;div&gt;&lt;font style=&quot;color: rgb(0, 255, 128);&quot;&gt;-add upload_date&lt;/font&gt;&lt;/div&gt;&lt;/div&gt;&lt;/div&gt;" style="whiteSpace=wrap;html=1;fontSize=13;" parent="1" vertex="1">
          <mxGeometry x="170" y="667" width="194" height="192" as="geometry" />
        </mxCell>
        <mxCell id="-w45ZgfKi6tFhenxyuMu-9" value="&lt;div style=&quot;text-align: center;&quot;&gt;&lt;span style=&quot;background-color: transparent; color: light-dark(rgb(0, 0, 0), rgb(255, 255, 255));&quot;&gt;API:&lt;/span&gt;&lt;/div&gt;&lt;ol&gt;&lt;li&gt;&lt;font color=&quot;#ff3333&quot;&gt;GET /data/update_overall_status/{project_id}&lt;/font&gt;&lt;/li&gt;&lt;li&gt;&lt;font color=&quot;#ff3333&quot;&gt;POST /data/cancel_overall_status&amp;nbsp;&lt;/font&gt;(會存 using_record)&lt;/li&gt;&lt;li&gt;&lt;font color=&quot;#ff3333&quot;&gt;POST /data/send_request_form&amp;nbsp;&lt;/font&gt;(會存 using_record)&lt;/li&gt;&lt;li&gt;&lt;font color=&quot;#ff3333&quot;&gt;POST /data/upload_solution_list&lt;/font&gt;&lt;/li&gt;&lt;li&gt;&lt;font color=&quot;#ff3333&quot;&gt;GET /download_solution_list/{form_id}/{filename}&lt;/font&gt;&lt;/li&gt;&lt;li&gt;&lt;font color=&quot;#ff3333&quot;&gt;DELETE /delete_solution_list/{filename}&lt;/font&gt;&lt;/li&gt;&lt;li&gt;&lt;font color=&quot;#ff3333&quot;&gt;POST /data/accept&amp;nbsp;&lt;/font&gt;(會存 using_record)&lt;/li&gt;&lt;li&gt;&lt;font color=&quot;#ff3333&quot;&gt;POST /data/reject&amp;nbsp;&lt;/font&gt;(會存 using_record)&lt;/li&gt;&lt;li&gt;&lt;font color=&quot;#ff3333&quot;&gt;POST /data/finished_request&amp;nbsp;&lt;/font&gt;(會存 using_record)&lt;/li&gt;&lt;li&gt;&lt;font color=&quot;#ff3333&quot;&gt;POST /data/upload_pdf_result&lt;/font&gt;&lt;/li&gt;&lt;li&gt;&lt;font color=&quot;#ff3333&quot;&gt;GET /download_pdf/{form_id}/{file}/{filename}&lt;/font&gt;&lt;/li&gt;&lt;li&gt;&lt;font color=&quot;#ff3333&quot;&gt;DELETE /delete_pdf/{form_id}/{file}/{filename}&lt;/font&gt;&lt;/li&gt;&lt;li&gt;&lt;font color=&quot;#ff3333&quot;&gt;POST /data/upload_plot_result&lt;/font&gt;&lt;/li&gt;&lt;li&gt;&lt;font color=&quot;#ff3333&quot;&gt;GET /download_plot/{form_id}/{filename}&lt;/font&gt;&lt;/li&gt;&lt;li&gt;&lt;font color=&quot;#ff3333&quot;&gt;DELETE /delete_plot/{form_id}&lt;/font&gt;&lt;/li&gt;&lt;li&gt;&lt;font color=&quot;#ff3333&quot;&gt;GET /data/get_role_list&lt;/font&gt;&lt;/li&gt;&lt;li&gt;&lt;font color=&quot;#ff3333&quot;&gt;POST /data/check_role&lt;/font&gt;&lt;/li&gt;&lt;li&gt;&lt;font color=&quot;#ff3333&quot;&gt;POST /data/set_role&lt;/font&gt;&lt;/li&gt;&lt;li&gt;&lt;font color=&quot;#ff3333&quot;&gt;DELETE /data/delete_role&lt;/font&gt;&lt;/li&gt;&lt;/ol&gt;&lt;div&gt;&lt;font color=&quot;#ff3333&quot;&gt;**** 區分 debug DB&lt;/font&gt;&lt;/div&gt;" style="whiteSpace=wrap;html=1;aspect=fixed;align=left;fontSize=13;" parent="1" vertex="1">
          <mxGeometry x="1030" y="-20" width="449" height="449" as="geometry" />
        </mxCell>
        <mxCell id="-w45ZgfKi6tFhenxyuMu-10" value="return 400" style="ellipse;whiteSpace=wrap;html=1;fontSize=13;" parent="1" vertex="1">
          <mxGeometry x="397" y="77" width="80" height="80" as="geometry" />
        </mxCell>
        <mxCell id="CphlBpZOKbrCG6OZHmC4-2" value="" style="edgeStyle=orthogonalEdgeStyle;rounded=0;orthogonalLoop=1;jettySize=auto;html=1;" parent="1" source="7-KTfRkRfkxP73cXao3J-3" target="f00TufxjCIewXmQMFSch-2" edge="1">
          <mxGeometry relative="1" as="geometry" />
        </mxCell>
        <mxCell id="7-KTfRkRfkxP73cXao3J-3" value="check_Auth&lt;div&gt;(token 延長至 3小時，但閒置15分鐘仍會登出)&lt;div&gt;/ personal_info&lt;div&gt;&lt;br&gt;&lt;div&gt;check_權限(admin/user)&lt;/div&gt;&lt;/div&gt;&lt;/div&gt;&lt;/div&gt;" style="rounded=0;whiteSpace=wrap;html=1;fontSize=13;" parent="1" vertex="1">
          <mxGeometry x="-270" y="165" width="120" height="130" as="geometry" />
        </mxCell>
        <mxCell id="CphlBpZOKbrCG6OZHmC4-13" value="" style="edgeStyle=orthogonalEdgeStyle;rounded=0;orthogonalLoop=1;jettySize=auto;html=1;" parent="1" source="CphlBpZOKbrCG6OZHmC4-5" target="CphlBpZOKbrCG6OZHmC4-12" edge="1">
          <mxGeometry relative="1" as="geometry" />
        </mxCell>
        <mxCell id="NQx30ZV_6yhh8ZIkelvx-3" value="N" style="edgeLabel;html=1;align=center;verticalAlign=middle;resizable=0;points=[];" parent="CphlBpZOKbrCG6OZHmC4-13" vertex="1" connectable="0">
          <mxGeometry x="-0.1667" relative="1" as="geometry">
            <mxPoint as="offset" />
          </mxGeometry>
        </mxCell>
        <mxCell id="sU0qJEVtW8bxzQAxphIA-1" value="" style="edgeStyle=orthogonalEdgeStyle;rounded=0;orthogonalLoop=1;jettySize=auto;html=1;" edge="1" parent="1" source="CphlBpZOKbrCG6OZHmC4-5" target="CphlBpZOKbrCG6OZHmC4-9">
          <mxGeometry relative="1" as="geometry" />
        </mxCell>
        <mxCell id="sU0qJEVtW8bxzQAxphIA-2" value="Y" style="edgeLabel;html=1;align=center;verticalAlign=middle;resizable=0;points=[];" vertex="1" connectable="0" parent="sU0qJEVtW8bxzQAxphIA-1">
          <mxGeometry x="-0.1724" y="-3" relative="1" as="geometry">
            <mxPoint as="offset" />
          </mxGeometry>
        </mxCell>
        <mxCell id="CphlBpZOKbrCG6OZHmC4-5" value="due Date" style="rhombus;whiteSpace=wrap;html=1;fontSize=13;" parent="1" vertex="1">
          <mxGeometry x="274" y="529" width="80" height="80" as="geometry" />
        </mxCell>
        <mxCell id="K_JdCXhflT2zcNYg5OgY-4" style="edgeStyle=orthogonalEdgeStyle;rounded=0;orthogonalLoop=1;jettySize=auto;html=1;entryX=0.5;entryY=1;entryDx=0;entryDy=0;" parent="1" source="CphlBpZOKbrCG6OZHmC4-9" target="f00TufxjCIewXmQMFSch-18" edge="1">
          <mxGeometry relative="1" as="geometry">
            <Array as="points">
              <mxPoint x="510" y="320" />
              <mxPoint x="437" y="320" />
            </Array>
          </mxGeometry>
        </mxCell>
        <mxCell id="CphlBpZOKbrCG6OZHmC4-9" value="不能再更新 simulation result" style="ellipse;whiteSpace=wrap;html=1;fontSize=13;" parent="1" vertex="1">
          <mxGeometry x="470" y="529" width="80" height="80" as="geometry" />
        </mxCell>
        <mxCell id="CphlBpZOKbrCG6OZHmC4-15" value="" style="edgeStyle=orthogonalEdgeStyle;rounded=0;orthogonalLoop=1;jettySize=auto;html=1;" parent="1" source="CphlBpZOKbrCG6OZHmC4-12" target="CphlBpZOKbrCG6OZHmC4-14" edge="1">
          <mxGeometry relative="1" as="geometry" />
        </mxCell>
        <mxCell id="CphlBpZOKbrCG6OZHmC4-12" value="留 &quot;Finish&quot; button" style="whiteSpace=wrap;html=1;fontSize=13;" parent="1" vertex="1">
          <mxGeometry x="94" y="539" width="120" height="60" as="geometry" />
        </mxCell>
        <mxCell id="CphlBpZOKbrCG6OZHmC4-17" value="" style="edgeStyle=orthogonalEdgeStyle;rounded=0;orthogonalLoop=1;jettySize=auto;html=1;" parent="1" source="CphlBpZOKbrCG6OZHmC4-14" target="CphlBpZOKbrCG6OZHmC4-16" edge="1">
          <mxGeometry relative="1" as="geometry">
            <Array as="points">
              <mxPoint x="264" y="451" />
              <mxPoint x="264" y="451" />
            </Array>
          </mxGeometry>
        </mxCell>
        <mxCell id="CphlBpZOKbrCG6OZHmC4-18" value="Y" style="edgeLabel;html=1;align=center;verticalAlign=middle;resizable=0;points=[];" parent="CphlBpZOKbrCG6OZHmC4-17" vertex="1" connectable="0">
          <mxGeometry x="-0.0229" y="1" relative="1" as="geometry">
            <mxPoint x="-6" as="offset" />
          </mxGeometry>
        </mxCell>
        <mxCell id="NQx30ZV_6yhh8ZIkelvx-8" value="" style="edgeStyle=orthogonalEdgeStyle;rounded=0;orthogonalLoop=1;jettySize=auto;html=1;" parent="1" source="CphlBpZOKbrCG6OZHmC4-14" target="NQx30ZV_6yhh8ZIkelvx-7" edge="1">
          <mxGeometry relative="1" as="geometry" />
        </mxCell>
        <mxCell id="sU0qJEVtW8bxzQAxphIA-3" value="N" style="edgeLabel;html=1;align=center;verticalAlign=middle;resizable=0;points=[];" vertex="1" connectable="0" parent="NQx30ZV_6yhh8ZIkelvx-8">
          <mxGeometry x="-0.283" y="-1" relative="1" as="geometry">
            <mxPoint as="offset" />
          </mxGeometry>
        </mxCell>
        <mxCell id="CphlBpZOKbrCG6OZHmC4-14" value="是否有新的 request form" style="rhombus;whiteSpace=wrap;html=1;fontSize=13;" parent="1" vertex="1">
          <mxGeometry x="114" y="411" width="80" height="80" as="geometry" />
        </mxCell>
        <mxCell id="CphlBpZOKbrCG6OZHmC4-16" value="&lt;font style=&quot;color: rgb(0, 33, 255);&quot;&gt;result 更新成新單&lt;/font&gt;&lt;div&gt;&lt;font style=&quot;color: rgb(0, 33, 255);&quot;&gt;舊單不能 update result&lt;/font&gt;&lt;/div&gt;&lt;div&gt;&lt;font style=&quot;color: rgb(0, 33, 255);&quot;&gt;(等待 Daniel 回覆 mail )&lt;/font&gt;&lt;/div&gt;" style="whiteSpace=wrap;html=1;fontSize=13;strokeColor=#000000;" parent="1" vertex="1">
          <mxGeometry x="252" y="421" width="200" height="60" as="geometry" />
        </mxCell>
        <mxCell id="CphlBpZOKbrCG6OZHmC4-21" value="可以 update 舊單 result" style="whiteSpace=wrap;html=1;fontSize=13;" parent="1" vertex="1">
          <mxGeometry x="-199" y="421" width="120" height="60" as="geometry" />
        </mxCell>
        <mxCell id="K_JdCXhflT2zcNYg5OgY-3" value="&lt;div&gt;_antennas: [&lt;/div&gt;&lt;div&gt;&amp;nbsp; &amp;nbsp; &amp;nbsp; {&lt;/div&gt;&lt;div&gt;&amp;nbsp; &amp;nbsp; &amp;nbsp; &amp;nbsp; remark: &#39;palm-rest&#39;,&lt;/div&gt;&lt;div&gt;&amp;nbsp; &amp;nbsp; &amp;nbsp; &amp;nbsp; antenna: &#39;&#39;,&lt;/div&gt;&lt;div&gt;&amp;nbsp; &amp;nbsp; &amp;nbsp; &amp;nbsp; antennaLocation: [19, 20, 21],&lt;/div&gt;&lt;div&gt;&amp;nbsp; &amp;nbsp; &amp;nbsp; &amp;nbsp; details: [&lt;/div&gt;&lt;div&gt;&amp;nbsp; &amp;nbsp; &amp;nbsp; &amp;nbsp; &amp;nbsp; {&lt;/div&gt;&lt;div&gt;&amp;nbsp; &amp;nbsp; &amp;nbsp; &amp;nbsp; &amp;nbsp; &amp;nbsp; internalizationPosition: &#39;P1&#39;,&lt;/div&gt;&lt;div&gt;&amp;nbsp; &amp;nbsp; &amp;nbsp; &amp;nbsp; &amp;nbsp; &amp;nbsp; importable: null,&lt;/div&gt;&lt;div&gt;&amp;nbsp; &amp;nbsp; &amp;nbsp; &amp;nbsp; &amp;nbsp; &amp;nbsp; extensionPosition: null,&lt;/div&gt;&lt;div&gt;&amp;nbsp; &amp;nbsp; &amp;nbsp; &amp;nbsp; &amp;nbsp; &amp;nbsp; cGap: null,&lt;/div&gt;&lt;div&gt;&amp;nbsp; &amp;nbsp; &amp;nbsp; &amp;nbsp; &amp;nbsp; &amp;nbsp; dGap: null,&lt;/div&gt;&lt;div&gt;&amp;nbsp; &amp;nbsp; &amp;nbsp; &amp;nbsp; &amp;nbsp; },&lt;/div&gt;&lt;div&gt;&amp;nbsp; &amp;nbsp; &amp;nbsp; &amp;nbsp; &amp;nbsp; {&lt;/div&gt;&lt;div&gt;&amp;nbsp; &amp;nbsp; &amp;nbsp; &amp;nbsp; &amp;nbsp; &amp;nbsp; internalizationPosition: &#39;P2&#39;,&lt;/div&gt;&lt;div&gt;&amp;nbsp; &amp;nbsp; &amp;nbsp; &amp;nbsp; &amp;nbsp; &amp;nbsp; importable: null,&lt;/div&gt;&lt;div&gt;&amp;nbsp; &amp;nbsp; &amp;nbsp; &amp;nbsp; &amp;nbsp; &amp;nbsp; extensionPosition: null,&lt;/div&gt;&lt;div&gt;&amp;nbsp; &amp;nbsp; &amp;nbsp; &amp;nbsp; &amp;nbsp; &amp;nbsp; cGap: null,&lt;/div&gt;&lt;div&gt;&amp;nbsp; &amp;nbsp; &amp;nbsp; &amp;nbsp; &amp;nbsp; &amp;nbsp; dGap: null,&lt;/div&gt;&lt;div&gt;&amp;nbsp; &amp;nbsp; &amp;nbsp; &amp;nbsp; &amp;nbsp; },&lt;/div&gt;&lt;div&gt;&amp;nbsp; &amp;nbsp; &amp;nbsp; &amp;nbsp; &amp;nbsp; {&lt;/div&gt;&lt;div&gt;&amp;nbsp; &amp;nbsp; &amp;nbsp; &amp;nbsp; &amp;nbsp; &amp;nbsp; internalizationPosition: &#39;P3&#39;,&lt;/div&gt;&lt;div&gt;&amp;nbsp; &amp;nbsp; &amp;nbsp; &amp;nbsp; &amp;nbsp; &amp;nbsp; importable: null,&lt;/div&gt;&lt;div&gt;&amp;nbsp; &amp;nbsp; &amp;nbsp; &amp;nbsp; &amp;nbsp; &amp;nbsp; extensionPosition: null,&lt;/div&gt;&lt;div&gt;&amp;nbsp; &amp;nbsp; &amp;nbsp; &amp;nbsp; &amp;nbsp; &amp;nbsp; cGap: null,&lt;/div&gt;&lt;div&gt;&amp;nbsp; &amp;nbsp; &amp;nbsp; &amp;nbsp; &amp;nbsp; &amp;nbsp; dGap: null,&lt;/div&gt;&lt;div&gt;&amp;nbsp; &amp;nbsp; &amp;nbsp; &amp;nbsp; &amp;nbsp; },&lt;/div&gt;&lt;div&gt;&amp;nbsp; &amp;nbsp; &amp;nbsp; &amp;nbsp; &amp;nbsp; {&lt;/div&gt;&lt;div&gt;&amp;nbsp; &amp;nbsp; &amp;nbsp; &amp;nbsp; &amp;nbsp; &amp;nbsp; internalizationPosition: &#39;P4&#39;,&lt;/div&gt;&lt;div&gt;&amp;nbsp; &amp;nbsp; &amp;nbsp; &amp;nbsp; &amp;nbsp; &amp;nbsp; importable: null,&lt;/div&gt;&lt;div&gt;&amp;nbsp; &amp;nbsp; &amp;nbsp; &amp;nbsp; &amp;nbsp; &amp;nbsp; extensionPosition: null,&lt;/div&gt;&lt;div&gt;&amp;nbsp; &amp;nbsp; &amp;nbsp; &amp;nbsp; &amp;nbsp; &amp;nbsp; cGap: null,&lt;/div&gt;&lt;div&gt;&amp;nbsp; &amp;nbsp; &amp;nbsp; &amp;nbsp; &amp;nbsp; &amp;nbsp; dGap: null,&lt;/div&gt;&lt;div&gt;&amp;nbsp; &amp;nbsp; &amp;nbsp; &amp;nbsp; &amp;nbsp; },&lt;/div&gt;&lt;div&gt;&amp;nbsp; &amp;nbsp; &amp;nbsp; &amp;nbsp; &amp;nbsp; {&lt;/div&gt;&lt;div&gt;&amp;nbsp; &amp;nbsp; &amp;nbsp; &amp;nbsp; &amp;nbsp; &amp;nbsp; internalizationPosition: &#39;P5&#39;,&lt;/div&gt;&lt;div&gt;&amp;nbsp; &amp;nbsp; &amp;nbsp; &amp;nbsp; &amp;nbsp; &amp;nbsp; importable: null,&lt;/div&gt;&lt;div&gt;&amp;nbsp; &amp;nbsp; &amp;nbsp; &amp;nbsp; &amp;nbsp; &amp;nbsp; extensionPosition: null,&lt;/div&gt;&lt;div&gt;&amp;nbsp; &amp;nbsp; &amp;nbsp; &amp;nbsp; &amp;nbsp; &amp;nbsp; cGap: null,&lt;/div&gt;&lt;div&gt;&amp;nbsp; &amp;nbsp; &amp;nbsp; &amp;nbsp; &amp;nbsp; &amp;nbsp; dGap: null,&lt;/div&gt;&lt;div&gt;&amp;nbsp; &amp;nbsp; &amp;nbsp; &amp;nbsp; &amp;nbsp; },&lt;/div&gt;&lt;div&gt;&amp;nbsp; &amp;nbsp; &amp;nbsp; &amp;nbsp; &amp;nbsp; {&lt;/div&gt;&lt;div&gt;&amp;nbsp; &amp;nbsp; &amp;nbsp; &amp;nbsp; &amp;nbsp; &amp;nbsp; internalizationPosition: &#39;P6&#39;,&lt;/div&gt;&lt;div&gt;&amp;nbsp; &amp;nbsp; &amp;nbsp; &amp;nbsp; &amp;nbsp; &amp;nbsp; importable: null,&lt;/div&gt;&lt;div&gt;&amp;nbsp; &amp;nbsp; &amp;nbsp; &amp;nbsp; &amp;nbsp; &amp;nbsp; extensionPosition: null,&lt;/div&gt;&lt;div&gt;&amp;nbsp; &amp;nbsp; &amp;nbsp; &amp;nbsp; &amp;nbsp; &amp;nbsp; cGap: null,&lt;/div&gt;&lt;div&gt;&amp;nbsp; &amp;nbsp; &amp;nbsp; &amp;nbsp; &amp;nbsp; &amp;nbsp; dGap: null,&lt;/div&gt;&lt;div&gt;&amp;nbsp; &amp;nbsp; &amp;nbsp; &amp;nbsp; &amp;nbsp; },&lt;/div&gt;&lt;div&gt;&amp;nbsp; &amp;nbsp; &amp;nbsp; &amp;nbsp; &amp;nbsp; {&lt;/div&gt;&lt;div&gt;&amp;nbsp; &amp;nbsp; &amp;nbsp; &amp;nbsp; &amp;nbsp; &amp;nbsp; internalizationPosition: &#39;Others&#39;,&lt;/div&gt;&lt;div&gt;&amp;nbsp; &amp;nbsp; &amp;nbsp; &amp;nbsp; &amp;nbsp; &amp;nbsp; importable: null,&lt;/div&gt;&lt;div&gt;&amp;nbsp; &amp;nbsp; &amp;nbsp; &amp;nbsp; &amp;nbsp; &amp;nbsp; extensionPosition: null,&lt;/div&gt;&lt;div&gt;&amp;nbsp; &amp;nbsp; &amp;nbsp; &amp;nbsp; &amp;nbsp; &amp;nbsp; cGap: null,&lt;/div&gt;&lt;div&gt;&amp;nbsp; &amp;nbsp; &amp;nbsp; &amp;nbsp; &amp;nbsp; &amp;nbsp; dGap: null,&lt;/div&gt;&lt;div&gt;&amp;nbsp; &amp;nbsp; &amp;nbsp; &amp;nbsp; &amp;nbsp; },&lt;/div&gt;&lt;div&gt;&amp;nbsp; &amp;nbsp; &amp;nbsp; &amp;nbsp; ],&lt;/div&gt;&lt;div&gt;&amp;nbsp; &amp;nbsp; &amp;nbsp; },&lt;/div&gt;&lt;div&gt;&amp;nbsp; &amp;nbsp; &amp;nbsp; {&lt;/div&gt;&lt;div&gt;&amp;nbsp; &amp;nbsp; &amp;nbsp; &amp;nbsp; remark: &#39;LCD&#39;,&lt;/div&gt;&lt;div&gt;&amp;nbsp; &amp;nbsp; &amp;nbsp; &amp;nbsp; antenna: &#39;&#39;,&lt;/div&gt;&lt;div&gt;&amp;nbsp; &amp;nbsp; &amp;nbsp; &amp;nbsp; antennaLocation: [6, 7, 8],&lt;/div&gt;&lt;div&gt;&amp;nbsp; &amp;nbsp; &amp;nbsp; &amp;nbsp; details: [&lt;/div&gt;&lt;div&gt;&amp;nbsp; &amp;nbsp; &amp;nbsp; &amp;nbsp; &amp;nbsp; {&lt;/div&gt;&lt;div&gt;&amp;nbsp; &amp;nbsp; &amp;nbsp; &amp;nbsp; &amp;nbsp; &amp;nbsp; internalizationPosition: &#39;L1&#39;,&lt;/div&gt;&lt;div&gt;&amp;nbsp; &amp;nbsp; &amp;nbsp; &amp;nbsp; &amp;nbsp; &amp;nbsp; importable: null,&lt;/div&gt;&lt;div&gt;&amp;nbsp; &amp;nbsp; &amp;nbsp; &amp;nbsp; &amp;nbsp; &amp;nbsp; extensionPosition: null,&lt;/div&gt;&lt;div&gt;&amp;nbsp; &amp;nbsp; &amp;nbsp; &amp;nbsp; &amp;nbsp; &amp;nbsp; cGap: null,&lt;/div&gt;&lt;div&gt;&amp;nbsp; &amp;nbsp; &amp;nbsp; &amp;nbsp; &amp;nbsp; &amp;nbsp; dGap: null,&lt;/div&gt;&lt;div&gt;&amp;nbsp; &amp;nbsp; &amp;nbsp; &amp;nbsp; &amp;nbsp; },&lt;/div&gt;&lt;div&gt;&amp;nbsp; &amp;nbsp; &amp;nbsp; &amp;nbsp; &amp;nbsp; {&lt;/div&gt;&lt;div&gt;&amp;nbsp; &amp;nbsp; &amp;nbsp; &amp;nbsp; &amp;nbsp; &amp;nbsp; internalizationPosition: &#39;L2&#39;,&lt;/div&gt;&lt;div&gt;&amp;nbsp; &amp;nbsp; &amp;nbsp; &amp;nbsp; &amp;nbsp; &amp;nbsp; importable: null,&lt;/div&gt;&lt;div&gt;&amp;nbsp; &amp;nbsp; &amp;nbsp; &amp;nbsp; &amp;nbsp; &amp;nbsp; extensionPosition: null,&lt;/div&gt;&lt;div&gt;&amp;nbsp; &amp;nbsp; &amp;nbsp; &amp;nbsp; &amp;nbsp; &amp;nbsp; cGap: null,&lt;/div&gt;&lt;div&gt;&amp;nbsp; &amp;nbsp; &amp;nbsp; &amp;nbsp; &amp;nbsp; &amp;nbsp; dGap: null,&lt;/div&gt;&lt;div&gt;&amp;nbsp; &amp;nbsp; &amp;nbsp; &amp;nbsp; &amp;nbsp; },&lt;/div&gt;&lt;div&gt;&amp;nbsp; &amp;nbsp; &amp;nbsp; &amp;nbsp; &amp;nbsp; {&lt;/div&gt;&lt;div&gt;&amp;nbsp; &amp;nbsp; &amp;nbsp; &amp;nbsp; &amp;nbsp; &amp;nbsp; internalizationPosition: &#39;L3&#39;,&lt;/div&gt;&lt;div&gt;&amp;nbsp; &amp;nbsp; &amp;nbsp; &amp;nbsp; &amp;nbsp; &amp;nbsp; importable: null,&lt;/div&gt;&lt;div&gt;&amp;nbsp; &amp;nbsp; &amp;nbsp; &amp;nbsp; &amp;nbsp; &amp;nbsp; extensionPosition: null,&lt;/div&gt;&lt;div&gt;&amp;nbsp; &amp;nbsp; &amp;nbsp; &amp;nbsp; &amp;nbsp; &amp;nbsp; cGap: null,&lt;/div&gt;&lt;div&gt;&amp;nbsp; &amp;nbsp; &amp;nbsp; &amp;nbsp; &amp;nbsp; &amp;nbsp; dGap: null,&lt;/div&gt;&lt;div&gt;&amp;nbsp; &amp;nbsp; &amp;nbsp; &amp;nbsp; &amp;nbsp; },&lt;/div&gt;&lt;div&gt;&amp;nbsp; &amp;nbsp; &amp;nbsp; &amp;nbsp; &amp;nbsp; {&lt;/div&gt;&lt;div&gt;&amp;nbsp; &amp;nbsp; &amp;nbsp; &amp;nbsp; &amp;nbsp; &amp;nbsp; internalizationPosition: &#39;Others&#39;,&lt;/div&gt;&lt;div&gt;&amp;nbsp; &amp;nbsp; &amp;nbsp; &amp;nbsp; &amp;nbsp; &amp;nbsp; importable: null,&lt;/div&gt;&lt;div&gt;&amp;nbsp; &amp;nbsp; &amp;nbsp; &amp;nbsp; &amp;nbsp; &amp;nbsp; extensionPosition: null,&lt;/div&gt;&lt;div&gt;&amp;nbsp; &amp;nbsp; &amp;nbsp; &amp;nbsp; &amp;nbsp; &amp;nbsp; cGap: null,&lt;/div&gt;&lt;div&gt;&amp;nbsp; &amp;nbsp; &amp;nbsp; &amp;nbsp; &amp;nbsp; &amp;nbsp; dGap: null,&lt;/div&gt;&lt;div&gt;&amp;nbsp; &amp;nbsp; &amp;nbsp; &amp;nbsp; &amp;nbsp; },&lt;/div&gt;&lt;div&gt;&amp;nbsp; &amp;nbsp; &amp;nbsp; &amp;nbsp; ],&lt;/div&gt;&lt;div&gt;&amp;nbsp; &amp;nbsp; &amp;nbsp; },&lt;/div&gt;&lt;div&gt;&amp;nbsp; &amp;nbsp; &amp;nbsp; {&lt;/div&gt;&lt;div&gt;&amp;nbsp; &amp;nbsp; &amp;nbsp; &amp;nbsp; remark: &#39;speaker&#39;,&lt;/div&gt;&lt;div&gt;&amp;nbsp; &amp;nbsp; &amp;nbsp; &amp;nbsp; antenna: &#39;&#39;,&lt;/div&gt;&lt;div&gt;&amp;nbsp; &amp;nbsp; &amp;nbsp; &amp;nbsp; antennaLocation: [17, 18, 22, 23],&lt;/div&gt;&lt;div&gt;&amp;nbsp; &amp;nbsp; &amp;nbsp; &amp;nbsp; details: [&lt;/div&gt;&lt;div&gt;&amp;nbsp; &amp;nbsp; &amp;nbsp; &amp;nbsp; &amp;nbsp; {&lt;/div&gt;&lt;div&gt;&amp;nbsp; &amp;nbsp; &amp;nbsp; &amp;nbsp; &amp;nbsp; &amp;nbsp; internalizationPosition: &#39;S1&#39;,&lt;/div&gt;&lt;div&gt;&amp;nbsp; &amp;nbsp; &amp;nbsp; &amp;nbsp; &amp;nbsp; &amp;nbsp; importable: null,&lt;/div&gt;&lt;div&gt;&amp;nbsp; &amp;nbsp; &amp;nbsp; &amp;nbsp; &amp;nbsp; &amp;nbsp; extensionPosition: null,&lt;/div&gt;&lt;div&gt;&amp;nbsp; &amp;nbsp; &amp;nbsp; &amp;nbsp; &amp;nbsp; &amp;nbsp; cGap: null,&lt;/div&gt;&lt;div&gt;&amp;nbsp; &amp;nbsp; &amp;nbsp; &amp;nbsp; &amp;nbsp; &amp;nbsp; dGap: null,&lt;/div&gt;&lt;div&gt;&amp;nbsp; &amp;nbsp; &amp;nbsp; &amp;nbsp; &amp;nbsp; },&lt;/div&gt;&lt;div&gt;&amp;nbsp; &amp;nbsp; &amp;nbsp; &amp;nbsp; &amp;nbsp; {&lt;/div&gt;&lt;div&gt;&amp;nbsp; &amp;nbsp; &amp;nbsp; &amp;nbsp; &amp;nbsp; &amp;nbsp; internalizationPosition: &#39;S2&#39;,&lt;/div&gt;&lt;div&gt;&amp;nbsp; &amp;nbsp; &amp;nbsp; &amp;nbsp; &amp;nbsp; &amp;nbsp; importable: null,&lt;/div&gt;&lt;div&gt;&amp;nbsp; &amp;nbsp; &amp;nbsp; &amp;nbsp; &amp;nbsp; &amp;nbsp; extensionPosition: null,&lt;/div&gt;&lt;div&gt;&amp;nbsp; &amp;nbsp; &amp;nbsp; &amp;nbsp; &amp;nbsp; &amp;nbsp; cGap: null,&lt;/div&gt;&lt;div&gt;&amp;nbsp; &amp;nbsp; &amp;nbsp; &amp;nbsp; &amp;nbsp; &amp;nbsp; dGap: null,&lt;/div&gt;&lt;div&gt;&amp;nbsp; &amp;nbsp; &amp;nbsp; &amp;nbsp; &amp;nbsp; },&lt;/div&gt;&lt;div&gt;&amp;nbsp; &amp;nbsp; &amp;nbsp; &amp;nbsp; &amp;nbsp; {&lt;/div&gt;&lt;div&gt;&amp;nbsp; &amp;nbsp; &amp;nbsp; &amp;nbsp; &amp;nbsp; &amp;nbsp; internalizationPosition: &#39;S3&#39;,&lt;/div&gt;&lt;div&gt;&amp;nbsp; &amp;nbsp; &amp;nbsp; &amp;nbsp; &amp;nbsp; &amp;nbsp; importable: null,&lt;/div&gt;&lt;div&gt;&amp;nbsp; &amp;nbsp; &amp;nbsp; &amp;nbsp; &amp;nbsp; &amp;nbsp; extensionPosition: null,&lt;/div&gt;&lt;div&gt;&amp;nbsp; &amp;nbsp; &amp;nbsp; &amp;nbsp; &amp;nbsp; &amp;nbsp; cGap: null,&lt;/div&gt;&lt;div&gt;&amp;nbsp; &amp;nbsp; &amp;nbsp; &amp;nbsp; &amp;nbsp; &amp;nbsp; dGap: null,&lt;/div&gt;&lt;div&gt;&amp;nbsp; &amp;nbsp; &amp;nbsp; &amp;nbsp; &amp;nbsp; },&lt;/div&gt;&lt;div&gt;&amp;nbsp; &amp;nbsp; &amp;nbsp; &amp;nbsp; &amp;nbsp; {&lt;/div&gt;&lt;div&gt;&amp;nbsp; &amp;nbsp; &amp;nbsp; &amp;nbsp; &amp;nbsp; &amp;nbsp; internalizationPosition: &#39;S4&#39;,&lt;/div&gt;&lt;div&gt;&amp;nbsp; &amp;nbsp; &amp;nbsp; &amp;nbsp; &amp;nbsp; &amp;nbsp; importable: null,&lt;/div&gt;&lt;div&gt;&amp;nbsp; &amp;nbsp; &amp;nbsp; &amp;nbsp; &amp;nbsp; &amp;nbsp; extensionPosition: null,&lt;/div&gt;&lt;div&gt;&amp;nbsp; &amp;nbsp; &amp;nbsp; &amp;nbsp; &amp;nbsp; &amp;nbsp; cGap: null,&lt;/div&gt;&lt;div&gt;&amp;nbsp; &amp;nbsp; &amp;nbsp; &amp;nbsp; &amp;nbsp; &amp;nbsp; dGap: null,&lt;/div&gt;&lt;div&gt;&amp;nbsp; &amp;nbsp; &amp;nbsp; &amp;nbsp; &amp;nbsp; },&lt;/div&gt;&lt;div&gt;&amp;nbsp; &amp;nbsp; &amp;nbsp; &amp;nbsp; &amp;nbsp; {&lt;/div&gt;&lt;div&gt;&amp;nbsp; &amp;nbsp; &amp;nbsp; &amp;nbsp; &amp;nbsp; &amp;nbsp; internalizationPosition: &#39;S5&#39;,&lt;/div&gt;&lt;div&gt;&amp;nbsp; &amp;nbsp; &amp;nbsp; &amp;nbsp; &amp;nbsp; &amp;nbsp; importable: null,&lt;/div&gt;&lt;div&gt;&amp;nbsp; &amp;nbsp; &amp;nbsp; &amp;nbsp; &amp;nbsp; &amp;nbsp; extensionPosition: null,&lt;/div&gt;&lt;div&gt;&amp;nbsp; &amp;nbsp; &amp;nbsp; &amp;nbsp; &amp;nbsp; &amp;nbsp; cGap: null,&lt;/div&gt;&lt;div&gt;&amp;nbsp; &amp;nbsp; &amp;nbsp; &amp;nbsp; &amp;nbsp; &amp;nbsp; dGap: null,&lt;/div&gt;&lt;div&gt;&amp;nbsp; &amp;nbsp; &amp;nbsp; &amp;nbsp; &amp;nbsp; },&lt;/div&gt;&lt;div&gt;&amp;nbsp; &amp;nbsp; &amp;nbsp; &amp;nbsp; &amp;nbsp; {&lt;/div&gt;&lt;div&gt;&amp;nbsp; &amp;nbsp; &amp;nbsp; &amp;nbsp; &amp;nbsp; &amp;nbsp; internalizationPosition: &#39;Others&#39;,&lt;/div&gt;&lt;div&gt;&amp;nbsp; &amp;nbsp; &amp;nbsp; &amp;nbsp; &amp;nbsp; &amp;nbsp; importable: null,&lt;/div&gt;&lt;div&gt;&amp;nbsp; &amp;nbsp; &amp;nbsp; &amp;nbsp; &amp;nbsp; &amp;nbsp; extensionPosition: null,&lt;/div&gt;&lt;div&gt;&amp;nbsp; &amp;nbsp; &amp;nbsp; &amp;nbsp; &amp;nbsp; &amp;nbsp; cGap: null,&lt;/div&gt;&lt;div&gt;&amp;nbsp; &amp;nbsp; &amp;nbsp; &amp;nbsp; &amp;nbsp; &amp;nbsp; dGap: null,&lt;/div&gt;&lt;div&gt;&amp;nbsp; &amp;nbsp; &amp;nbsp; &amp;nbsp; &amp;nbsp; },&lt;/div&gt;&lt;div&gt;&amp;nbsp; &amp;nbsp; &amp;nbsp; &amp;nbsp; ],&lt;/div&gt;&lt;div&gt;&amp;nbsp; &amp;nbsp; &amp;nbsp; },&lt;/div&gt;&lt;div&gt;&amp;nbsp; &amp;nbsp; &amp;nbsp; {&lt;/div&gt;&lt;div&gt;&amp;nbsp; &amp;nbsp; &amp;nbsp; &amp;nbsp; remark: &#39;hinge&#39;,&lt;/div&gt;&lt;div&gt;&amp;nbsp; &amp;nbsp; &amp;nbsp; &amp;nbsp; antenna: &#39;&#39;,&lt;/div&gt;&lt;div&gt;&amp;nbsp; &amp;nbsp; &amp;nbsp; &amp;nbsp; antennaLocation: [11, 12, 13, 14, 15],&lt;/div&gt;&lt;div&gt;&amp;nbsp; &amp;nbsp; &amp;nbsp; &amp;nbsp; details: [&lt;/div&gt;&lt;div&gt;&amp;nbsp; &amp;nbsp; &amp;nbsp; &amp;nbsp; &amp;nbsp; {&lt;/div&gt;&lt;div&gt;&amp;nbsp; &amp;nbsp; &amp;nbsp; &amp;nbsp; &amp;nbsp; &amp;nbsp; internalizationPosition: &#39;H1&#39;,&lt;/div&gt;&lt;div&gt;&amp;nbsp; &amp;nbsp; &amp;nbsp; &amp;nbsp; &amp;nbsp; &amp;nbsp; importable: null,&lt;/div&gt;&lt;div&gt;&amp;nbsp; &amp;nbsp; &amp;nbsp; &amp;nbsp; &amp;nbsp; &amp;nbsp; extensionPosition: null,&lt;/div&gt;&lt;div&gt;&amp;nbsp; &amp;nbsp; &amp;nbsp; &amp;nbsp; &amp;nbsp; &amp;nbsp; cGap: null,&lt;/div&gt;&lt;div&gt;&amp;nbsp; &amp;nbsp; &amp;nbsp; &amp;nbsp; &amp;nbsp; &amp;nbsp; dGap: null,&lt;/div&gt;&lt;div&gt;&amp;nbsp; &amp;nbsp; &amp;nbsp; &amp;nbsp; &amp;nbsp; },&lt;/div&gt;&lt;div&gt;&amp;nbsp; &amp;nbsp; &amp;nbsp; &amp;nbsp; &amp;nbsp; {&lt;/div&gt;&lt;div&gt;&amp;nbsp; &amp;nbsp; &amp;nbsp; &amp;nbsp; &amp;nbsp; &amp;nbsp; internalizationPosition: &#39;H2&#39;,&lt;/div&gt;&lt;div&gt;&amp;nbsp; &amp;nbsp; &amp;nbsp; &amp;nbsp; &amp;nbsp; &amp;nbsp; importable: null,&lt;/div&gt;&lt;div&gt;&amp;nbsp; &amp;nbsp; &amp;nbsp; &amp;nbsp; &amp;nbsp; &amp;nbsp; extensionPosition: null,&lt;/div&gt;&lt;div&gt;&amp;nbsp; &amp;nbsp; &amp;nbsp; &amp;nbsp; &amp;nbsp; &amp;nbsp; cGap: null,&lt;/div&gt;&lt;div&gt;&amp;nbsp; &amp;nbsp; &amp;nbsp; &amp;nbsp; &amp;nbsp; &amp;nbsp; dGap: null,&lt;/div&gt;&lt;div&gt;&amp;nbsp; &amp;nbsp; &amp;nbsp; &amp;nbsp; &amp;nbsp; },&lt;/div&gt;&lt;div&gt;&amp;nbsp; &amp;nbsp; &amp;nbsp; &amp;nbsp; &amp;nbsp; {&lt;/div&gt;&lt;div&gt;&amp;nbsp; &amp;nbsp; &amp;nbsp; &amp;nbsp; &amp;nbsp; &amp;nbsp; internalizationPosition: &#39;H3&#39;,&lt;/div&gt;&lt;div&gt;&amp;nbsp; &amp;nbsp; &amp;nbsp; &amp;nbsp; &amp;nbsp; &amp;nbsp; importable: null,&lt;/div&gt;&lt;div&gt;&amp;nbsp; &amp;nbsp; &amp;nbsp; &amp;nbsp; &amp;nbsp; &amp;nbsp; extensionPosition: null,&lt;/div&gt;&lt;div&gt;&amp;nbsp; &amp;nbsp; &amp;nbsp; &amp;nbsp; &amp;nbsp; &amp;nbsp; cGap: null,&lt;/div&gt;&lt;div&gt;&amp;nbsp; &amp;nbsp; &amp;nbsp; &amp;nbsp; &amp;nbsp; &amp;nbsp; dGap: null,&lt;/div&gt;&lt;div&gt;&amp;nbsp; &amp;nbsp; &amp;nbsp; &amp;nbsp; &amp;nbsp; },&lt;/div&gt;&lt;div&gt;&amp;nbsp; &amp;nbsp; &amp;nbsp; &amp;nbsp; &amp;nbsp; {&lt;/div&gt;&lt;div&gt;&amp;nbsp; &amp;nbsp; &amp;nbsp; &amp;nbsp; &amp;nbsp; &amp;nbsp; internalizationPosition: &#39;H4&#39;,&lt;/div&gt;&lt;div&gt;&amp;nbsp; &amp;nbsp; &amp;nbsp; &amp;nbsp; &amp;nbsp; &amp;nbsp; importable: null,&lt;/div&gt;&lt;div&gt;&amp;nbsp; &amp;nbsp; &amp;nbsp; &amp;nbsp; &amp;nbsp; &amp;nbsp; extensionPosition: null,&lt;/div&gt;&lt;div&gt;&amp;nbsp; &amp;nbsp; &amp;nbsp; &amp;nbsp; &amp;nbsp; &amp;nbsp; cGap: null,&lt;/div&gt;&lt;div&gt;&amp;nbsp; &amp;nbsp; &amp;nbsp; &amp;nbsp; &amp;nbsp; &amp;nbsp; dGap: null,&lt;/div&gt;&lt;div&gt;&amp;nbsp; &amp;nbsp; &amp;nbsp; &amp;nbsp; &amp;nbsp; },&lt;/div&gt;&lt;div&gt;&amp;nbsp; &amp;nbsp; &amp;nbsp; &amp;nbsp; &amp;nbsp; {&lt;/div&gt;&lt;div&gt;&amp;nbsp; &amp;nbsp; &amp;nbsp; &amp;nbsp; &amp;nbsp; &amp;nbsp; internalizationPosition: &#39;H5&#39;,&lt;/div&gt;&lt;div&gt;&amp;nbsp; &amp;nbsp; &amp;nbsp; &amp;nbsp; &amp;nbsp; &amp;nbsp; importable: null,&lt;/div&gt;&lt;div&gt;&amp;nbsp; &amp;nbsp; &amp;nbsp; &amp;nbsp; &amp;nbsp; &amp;nbsp; extensionPosition: null,&lt;/div&gt;&lt;div&gt;&amp;nbsp; &amp;nbsp; &amp;nbsp; &amp;nbsp; &amp;nbsp; &amp;nbsp; cGap: null,&lt;/div&gt;&lt;div&gt;&amp;nbsp; &amp;nbsp; &amp;nbsp; &amp;nbsp; &amp;nbsp; &amp;nbsp; dGap: null,&lt;/div&gt;&lt;div&gt;&amp;nbsp; &amp;nbsp; &amp;nbsp; &amp;nbsp; &amp;nbsp; },&lt;/div&gt;&lt;div&gt;&amp;nbsp; &amp;nbsp; &amp;nbsp; &amp;nbsp; &amp;nbsp; {&lt;/div&gt;&lt;div&gt;&amp;nbsp; &amp;nbsp; &amp;nbsp; &amp;nbsp; &amp;nbsp; &amp;nbsp; internalizationPosition: &#39;Others&#39;,&lt;/div&gt;&lt;div&gt;&amp;nbsp; &amp;nbsp; &amp;nbsp; &amp;nbsp; &amp;nbsp; &amp;nbsp; importable: null,&lt;/div&gt;&lt;div&gt;&amp;nbsp; &amp;nbsp; &amp;nbsp; &amp;nbsp; &amp;nbsp; &amp;nbsp; extensionPosition: null,&lt;/div&gt;&lt;div&gt;&amp;nbsp; &amp;nbsp; &amp;nbsp; &amp;nbsp; &amp;nbsp; &amp;nbsp; cGap: null,&lt;/div&gt;&lt;div&gt;&amp;nbsp; &amp;nbsp; &amp;nbsp; &amp;nbsp; &amp;nbsp; &amp;nbsp; dGap: null,&lt;/div&gt;&lt;div&gt;&amp;nbsp; &amp;nbsp; &amp;nbsp; &amp;nbsp; &amp;nbsp; },&lt;/div&gt;&lt;div&gt;&amp;nbsp; &amp;nbsp; &amp;nbsp; &amp;nbsp; ],&lt;/div&gt;&lt;div&gt;&amp;nbsp; &amp;nbsp; &amp;nbsp; },&lt;/div&gt;&lt;div&gt;&amp;nbsp; &amp;nbsp; ],&lt;/div&gt;" style="whiteSpace=wrap;html=1;aspect=fixed;" parent="1" vertex="1">
          <mxGeometry x="-1480" y="980" width="1850" height="1850" as="geometry" />
        </mxCell>
        <mxCell id="NQx30ZV_6yhh8ZIkelvx-9" value="" style="edgeStyle=orthogonalEdgeStyle;rounded=0;orthogonalLoop=1;jettySize=auto;html=1;" parent="1" source="NQx30ZV_6yhh8ZIkelvx-7" target="CphlBpZOKbrCG6OZHmC4-21" edge="1">
          <mxGeometry relative="1" as="geometry" />
        </mxCell>
        <mxCell id="NQx30ZV_6yhh8ZIkelvx-10" value="N" style="edgeLabel;html=1;align=center;verticalAlign=middle;resizable=0;points=[];" parent="NQx30ZV_6yhh8ZIkelvx-9" vertex="1" connectable="0">
          <mxGeometry x="-0.1667" y="2" relative="1" as="geometry">
            <mxPoint y="-2" as="offset" />
          </mxGeometry>
        </mxCell>
        <mxCell id="NQx30ZV_6yhh8ZIkelvx-7" value="Due Date" style="rhombus;whiteSpace=wrap;html=1;fontSize=13;" parent="1" vertex="1">
          <mxGeometry x="-19" y="411" width="80" height="80" as="geometry" />
        </mxCell>
        <mxCell id="NQx30ZV_6yhh8ZIkelvx-17" style="edgeStyle=orthogonalEdgeStyle;rounded=0;orthogonalLoop=1;jettySize=auto;html=1;entryX=0.475;entryY=0.991;entryDx=0;entryDy=0;entryPerimeter=0;" parent="1" source="CphlBpZOKbrCG6OZHmC4-21" target="f00TufxjCIewXmQMFSch-2" edge="1">
          <mxGeometry relative="1" as="geometry">
            <Array as="points">
              <mxPoint x="-139" y="390" />
              <mxPoint x="44" y="390" />
            </Array>
          </mxGeometry>
        </mxCell>
        <mxCell id="NQx30ZV_6yhh8ZIkelvx-18" style="edgeStyle=orthogonalEdgeStyle;rounded=0;orthogonalLoop=1;jettySize=auto;html=1;entryX=0.471;entryY=0.991;entryDx=0;entryDy=0;entryPerimeter=0;" parent="1" source="CphlBpZOKbrCG6OZHmC4-16" target="f00TufxjCIewXmQMFSch-2" edge="1">
          <mxGeometry relative="1" as="geometry">
            <Array as="points">
              <mxPoint x="352" y="390" />
              <mxPoint x="43" y="390" />
            </Array>
          </mxGeometry>
        </mxCell>
      </root>
    </mxGraphModel>
  </diagram>
</mxfile>
